#!OML:ASF H:\Dans Jumps\Project 1\Capture day 1\Session 1\subject.ASF
:FULLY-SPECIFIED
:DEGREES
145
root 0.379761 14.5887 4.48676 1.62924 -3.38777 -2.16889
lowerback 14.199 0.221217 1.00556
upperback 9.35173 0.379448 1.92895
thorax 1.90053 0.16873 1.40187
lowerneck -11.6744 -0.15619 -1.99444
upperneck -7.84561 0.0709918 1.98842
head -0.517517 0.0893228 0.945996
rclavicle 8.54774e-015 -3.97569e-016
rhumerus 41.4187 7.22349 -31.7263
rradius 67.7822
rwrist 21.7125
rhand -23.4341 -37.5908
rfingers 7.12502
rthumb 3.02389 -67.5491
lclavicle 8.54774e-015 -3.97569e-016
lhumerus 44.5374 -6.58332 36.2117
lradius 65.9855
lwrist 5.9931
lhand -31.8802 -3.34649
lfingers 7.12502
lthumb -5.13301 26.5713
rfemur -43.2858 -11.3547 15.1033
rtibia 77.6601
rfoot -31.78 -5.89359
rtoes -12.5215
lfemur -40.487 16.6651 -11.7431
ltibia 77.586
lfoot -30.3941 14.2446
ltoes -12.6306
146
root 0.379231 14.5884 4.48715 1.61608 -3.39891 -2.17056
lowerback 14.2028 0.226747 1.001
upperback 9.35095 0.386262 1.92767
thorax 1.89749 0.171963 1.40224
lowerneck -11.6234 -0.172087 -1.93842
upperneck -7.86632 0.0410163 1.93623
head -0.531669 0.0723269 0.919049
rclavicle 7.35503e-015 8.74653e-015
rhumerus 41.4094 7.22217 -31.742
rradius 67.7723
rwrist 21.7066
rhand -23.4138 -37.5767
rfingers 7.12502
rthumb 3.0435 -67.5347
lclavicle 7.35503e-015 8.74653e-015
lhumerus 44.5235 -6.58824 36.2273
lradius 65.9957
lwrist 5.977
lhand -31.8815 -3.3714
lfingers 7.12502
lthumb -5.13431 26.5464
rfemur -43.2836 -11.3296 15.1069
rtibia 77.6755
rfoot -31.7468 -5.93387
rtoes -12.624
lfemur -40.4716 16.6684 -11.7316
ltibia 77.6015
lfoot -30.4192 14.2269
ltoes -12.5813
147
root 0.378827 14.5867 4.48783 1.60689 -3.39927 -2.15668
lowerback 14.1935 0.226117 0.978533
upperback 9.35926 0.382574 1.92741
thorax 1.91118 0.16912 1.41515
lowerneck -11.6378 -0.163946 -1.94734
upperneck -7.84561 0.0532007 1.94441
head -0.523094 0.0787892 0.923531
rclavicle -6.75868e-015 -3.33958e-014
rhumerus 41.4303 7.21536 -31.7636
rradius 67.765
rwrist 21.705
rhand -23.2158 -37.4735
rfingers 7.12502
rthumb 3.23473 -67.4287
lclavicle -6.75868e-015 -3.33958e-014
lhumerus 44.535 -6.57395 36.2392
lradius 65.9867
lwrist 5.96406
lhand -31.8747 -3.35548
lfingers 7.12502
lthumb -5.12777 26.5625
rfemur -43.2839 -11.329 15.0917
rtibia 77.6967
rfoot -31.7844 -5.92659
rtoes -12.614
lfemur -40.4702 16.665 -11.7415
ltibia 77.6169
lfoot -30.4112 14.2554
ltoes -12.6362
148
root 0.378645 14.5848 4.4891 1.59466 -3.4071 -2.1756
lowerback 14.2035 0.222444 0.993499
upperback 9.35537 0.379632 1.93316
thorax 1.90191 0.168106 1.41305
lowerneck -11.6282 -0.162427 -1.98606
upperneck -7.81776 0.0603249 1.98121
head -0.515891 0.0834721 0.941899
rclavicle 1.39149e-015 -1.19271e-015
rhumerus 41.4353 7.23579 -31.7695
rradius 67.7641
rwrist 21.6752
rhand -23.2501 -37.5033
rfingers 7.12502
rthumb 3.2016 -67.459
lclavicle 1.39149e-015 -1.19271e-015
lhumerus 44.5122 -6.57398 36.2551
lradius 65.9838
lwrist 5.9563
lhand -31.8962 -3.34722
lfingers 7.12502
lthumb -5.14855 26.5702
rfemur -43.2682 -11.3103 15.1066
rtibia 77.7146
rfoot -31.8047 -5.92192
rtoes -12.5824
lfemur -40.4564 16.6758 -11.7137
ltibia 77.6366
lfoot -30.4189 14.2537
ltoes -12.635
149
root 0.378513 14.5838 4.48936 1.58907 -3.4022 -2.16819
lowerback 14.193 0.221618 0.986201
upperback 9.36573 0.377297 1.93462
thorax 1.9185 0.166565 1.41907
lowerneck -11.6571 -0.158192 -1.98196
upperneck -7.81155 0.0656829 1.97302
head -0.5095 0.0861684 0.938839
rclavicle 1.39149e-015 1.11319e-014
rhumerus 41.4359 7.22689 -31.7821
rradius 67.765
rwrist 21.6751
rhand -23.2594 -37.5682
rfingers 7.12502
rthumb 3.19261 -67.524
lclavicle 1.39149e-015 1.11319e-014
lhumerus 44.5073 -6.562 36.2922
lradius 65.99
lwrist 5.92041
lhand -31.9108 -3.32122
lfingers 7.12502
lthumb -5.16263 26.5959
rfemur -43.267 -11.3146 15.0964
rtibia 77.7315
rfoot -31.8119 -5.94496
rtoes -12.627
lfemur -40.4598 16.6735 -11.7233
ltibia 77.6513
lfoot -30.416 14.2856
ltoes -12.6555
150
root 0.378425 14.5824 4.48978 1.59181 -3.39588 -2.14451
lowerback 14.177 0.21998 0.977026
upperback 9.37062 0.373755 1.91688
thorax 1.93224 0.164937 1.4062
lowerneck -11.658 -0.161017 -1.9728
upperneck -7.81031 0.061407 1.98901
head -0.508845 0.0838535 0.942202
rclavicle 1.39149e-015 -7.15625e-015
rhumerus 41.4472 7.22013 -31.8019
rradius 67.7562
rwrist 21.6569
rhand -23.252 -37.5971
rfingers 7.12502
rthumb 3.19977 -67.5528
lclavicle 1.39149e-015 -7.15625e-015
lhumerus 44.5136 -6.57383 36.2712
lradius 66.0067
lwrist 5.92521
lhand -31.9062 -3.36797
lfingers 7.12502
lthumb -5.15816 26.5493
rfemur -43.2796 -11.3244 15.0683
rtibia 77.7514
rfoot -31.8336 -5.90125
rtoes -12.51
lfemur -40.4714 16.6575 -11.7522
ltibia 77.6669
lfoot -30.4121 14.3077
ltoes -12.6626
151
root 0.378358 14.5813 4.49058 1.58183 -3.39634 -2.14228
lowerback 14.1913 0.219869 0.976246
upperback 9.3663 0.373925 1.91618
thorax 1.92008 0.165011 1.40581
lowerneck -11.6917 -0.160615 -1.97839
upperneck -7.76286 0.0632799 2.00891
head -0.48859 0.0852049 0.949574
rclavicle 1.39149e-015 -6.36111e-015
rhumerus 41.4471 7.22885 -31.8148
rradius 67.7325
rwrist 21.6588
rhand -23.2922 -37.603
rfingers 7.12502
rthumb 3.16095 -67.5593
lclavicle 1.39149e-015 -6.36111e-015
lhumerus 44.494 -6.58362 36.2911
lradius 66.0164
lwrist 5.91752
lhand -31.8627 -3.39345
lfingers 7.12502
lthumb -5.1162 26.5248
rfemur -43.2681 -11.3281 15.0649
rtibia 77.7636
rfoot -31.8109 -5.95135
rtoes -12.5197
lfemur -40.4609 16.6628 -11.7516
ltibia 77.6813
lfoot -30.4421 14.304
ltoes -12.6406
152
root 0.377935 14.58 4.49069 1.58176 -3.38277 -2.14233
lowerback 14.1911 0.214888 0.973926
upperback 9.35962 0.36736 1.91928
thorax 1.91313 0.161569 1.41111
lowerneck -11.6871 -0.168248 -1.96039
upperneck -7.74464 0.0496154 1.97401
head -0.483426 0.0777012 0.935098
rclavicle -8.54774e-015 -2.0276e-014
rhumerus 41.44 7.24707 -31.8208
rradius 67.7406
rwrist 21.6386
rhand -23.3135 -37.6181
rfingers 7.12502
rthumb 3.14037 -67.5747
lclavicle -8.54774e-015 -2.0276e-014
lhumerus 44.4767 -6.59834 36.301
lradius 66.0404
lwrist 5.96452
lhand -31.6108 -3.36925
lfingers 7.12502
lthumb -4.8729 26.5547
rfemur -43.2738 -11.3367 15.0678
rtibia 77.7784
rfoot -31.8345 -5.97134
rtoes -12.6436
lfemur -40.4702 16.6524 -11.7481
ltibia 77.6947
lfoot -30.4597 14.2714
ltoes -12.6012
153
root 0.377879 14.5788 4.49173 1.57792 -3.38004 -2.16388
lowerback 14.1732 0.203794 0.997984
upperback 9.37801 0.354569 1.92302
thorax 1.94265 0.156057 1.40322
lowerneck -11.652 -0.160376 -1.93486
upperneck -7.81868 0.0565383 1.94836
head -0.512466 0.0801857 0.922792
rclavicle -3.97569e-016 -6.75868e-015
rhumerus 41.507 7.25443 -31.79
rradius 67.7237
rwrist 21.6125
rhand -23.2964 -37.6734
rfingers 7.12502
rthumb 3.15686 -67.6298
lclavicle -3.97569e-016 -6.75868e-015
lhumerus 44.4682 -6.58054 36.2806
lradius 66.0395
lwrist 5.93168
lhand -31.8965 -3.39741
lfingers 7.12502
lthumb -5.14884 26.52
rfemur -43.2667 -11.3341 15.0898
rtibia 77.7908
rfoot -31.8164 -5.99916
rtoes -12.7354
lfemur -40.4672 16.6556 -11.7228
ltibia 77.7085
lfoot -30.4401 14.324
ltoes -12.69
154
root 0.377608 14.5785 4.4932 1.56209 -3.39245 -2.15008
lowerback 14.1533 0.21647 0.972753
upperback 9.39549 0.367575 1.92412
thorax 1.97146 0.161384 1.41718
lowerneck -11.7045 -0.167232 -1.94453
upperneck -7.77123 0.0494596 1.96681
head -0.489067 0.0772316 0.930159
rclavicle 3.77691e-015 9.54166e-015
rhumerus 41.5013 7.24282 -31.7781
rradius 67.7263
rwrist 21.6119
rhand -23.2999 -37.6522
rfingers 7.12502
rthumb 3.15346 -67.6086
lclavicle 3.77691e-015 9.54166e-015
lhumerus 44.4967 -6.58521 36.2929
lradius 66.044
lwrist 5.95952
lhand -31.8155 -3.24934
lfingers 7.12502
lthumb -5.07062 26.67
rfemur -43.2493 -11.3244 15.0701
rtibia 77.8014
rfoot -31.8314 -6.00335
rtoes -12.6702
lfemur -40.4456 16.673 -11.7343
ltibia 77.7161
lfoot -30.4473 14.336
ltoes -12.6974
155
root 0.377469 14.5762 4.49201 1.56678 -3.37174 -2.16472
lowerback 14.1611 0.206256 0.996748
upperback 9.39866 0.35695 1.92101
thorax 1.9711 0.157235 1.40172
lowerneck -11.7519 -0.164851 -1.96384
upperneck -7.74747 0.0566012 2.00527
head -0.474109 0.0817246 0.945894
rclavicle -9.54166e-015 -5.56597e-015
rhumerus 41.4666 7.23833 -31.7781
rradius 67.7668
rwrist 21.5868
rhand -23.3142 -37.6944
rfingers 7.12502
rthumb 3.13971 -67.651
lclavicle -9.54166e-015 -5.56597e-015
lhumerus 44.4826 -6.60124 36.271
lradius 66.0498
lwrist 5.91743
lhand -31.8897 -3.19444
lfingers 7.12502
lthumb -5.1422 26.7232
rfemur -43.2689 -11.3411 15.0858
rtibia 77.8191
rfoot -31.8378 -5.96131
rtoes -12.5095
lfemur -40.4726 16.6618 -11.7181
ltibia 77.7352
lfoot -30.4647 14.312
ltoes -12.7119
156
root 0.377317 14.575 4.49221 1.55704 -3.37352 -2.1554
lowerback 14.1676 0.206276 0.978312
upperback 9.3974 0.35512 1.92643
thorax 1.96619 0.15533 1.41795
lowerneck -11.745 -0.16033 -1.96752
upperneck -7.74077 0.0623601 1.98928
head -0.47325 0.0846091 0.941638
rclavicle 8.54774e-015 -1.98785e-015
rhumerus 41.4349 7.2404 -31.8304
rradius 67.7811
rwrist 21.6612
rhand -23.2555 -37.5766
rfingers 7.12502
rthumb 3.19638 -67.5324
lclavicle 8.54774e-015 -1.98785e-015
lhumerus 44.446 -6.61691 36.2853
lradius 66.0437
lwrist 5.89109
lhand -31.8666 -3.17366
lfingers 7.12502
lthumb -5.11996 26.7445
rfemur -43.2657 -11.3434 15.0729
rtibia 77.8337
rfoot -31.8485 -5.94427
rtoes -12.5079
lfemur -40.4619 16.6655 -11.7225
ltibia 77.7433
lfoot -30.4617 14.3064
ltoes -12.67
